<svg xmlns="http://www.w3.org/2000/svg" viewBox="0 0 64 64" role="img" aria-label="DLS Box">
  <rect width="64" height="64" rx="14" fill="#07111f" />
  <path d="M13 18h21c10 0 17 6 17 14s-7 14-17 14H13V18Z" fill="#0ea5e9" opacity=".18" />
  <path d="M15 16h17c5.2 0 9.4 1.4 12.3 4.1A14.4 14.4 0 0 1 49 32c0 5-1.6 8.9-4.7 11.7C41.4 46.6 37.2 48 32 48H15V16Zm17 23.4c2.7 0 4.8-.6 6.2-1.8 1.5-1.2 2.2-3.1 2.2-5.6s-.7-4.4-2.2-5.6c-1.4-1.2-3.5-1.8-6.2-1.8h-7.8v14.8H32Z" fill="#f8fafc" />
  <path d="M50 15 58 23 50 31 42 23l8-8Z" fill="#d97706" />
  <path d="M50 33 58 41 50 49 42 41l8-8Z" fill="#38bdf8" />
</svg>
